<?xml version="1.0" encoding="utf-8"?>
<!-- Generator: Adobe Illustrator 26.5.0, SVG Export Plug-In . SVG Version: 6.00 Build 0)  -->
<svg version="1.0" id="katman_1" xmlns="http://www.w3.org/2000/svg" xmlns:xlink="http://www.w3.org/1999/xlink" x="0px" y="0px"
	 viewBox="0 0 1190.55 841.89" style="enable-background:new 0 0 1190.55 841.89;" xml:space="preserve">
<style type="text/css">
	.st0{fill-rule:evenodd;clip-rule:evenodd;fill:#281C1C;}
</style>
<path class="st0" d="M188.35,379.03c-0.41-45.28,2.84-77.73,2.84-77.73s7.7-1.6,25.53-1.6c60.38,0,81.86,18.43,105.77,65.71
	c-0.41-12.02-0.81-34.86-0.81-47.68c0-12.82,0.4-24.04,0.81-34.06c-10.94,1.6-36.07,2-45.79,2c-21.48,0-31.21,0.4-65.65,0.8
	c-17.02,0.4-33.23,0.4-34.04,0.4c-36.47,0-62-1.2-62-1.2c29.17,16.43,34.04,34.86,34.04,143.84c0,104.57-4.46,118.2-34.04,136.23
	c0,0,26.74-1.2,51.87-1.2c29.17,0,68.08,1.6,68.08,1.6c-35.25-15.63-45.79-31.66-46.19-98.17l-0.4-33.25c4.45,0,10.13-0.4,16.21-0.4
	c58.76,0,72.14,9.22,86.32,41.67c0,0-1.62-34.85-1.62-46.87c0-12.02,1.62-44.47,1.62-44.47c-14.59,26.85-27.56,36.46-95.24,36.46
	h-7.29V379.03z M483.2,569.75c15.8,0,34.85-9.21,42.15-17.63c-29.59-7.61-37.69-16.43-37.69-57.29c0-24.44,2.43-45.68,2.43-60.1
	c0-42.87-25.12-67.71-68.89-67.71c-27.96,0-57.14,14.03-70.1,47.28c14.59-11.62,36.06-18.43,55.92-18.43
	c29.99,0,47.82,14.42,46.61,43.67c0,3.2-0.81,20.03-1.22,32.85c-4.46-0.8-11.35-1.2-19.45-1.2c-35.26,0-94.83,10.42-94.83,54.89
	c0,25.24,19.05,43.67,49.44,43.67c26.75,0,51.06-14.02,64.44-38.06C453.21,548.52,459.29,569.75,483.2,569.75z M451.59,519.26v8.82
	c-11.35,6.01-31.61,12.02-45.39,12.02c-17.42,0-29.58-8.81-29.58-24.84c0-26.04,30.8-36.06,75.78-40.87
	c-0.4,6.41-0.4,11.62-0.4,12.42C451.99,489.22,451.59,510.45,451.59,519.26z M670.17,367.01c-27.15,0-49.03,15.63-72.94,39.27
	c0.4-33.25,1.22-129.01,2.03-136.23l-71.33,24.44c32.82,18.03,32.82,26.04,32.82,139.43c0,42.87-2.84,120.6-2.84,120.6
	c15,7.21,40.93,16.42,72.14,16.42c59.17,0,117.93-33.65,117.93-109.78C747.98,399.07,709.07,367.01,670.17,367.01z M597.23,467.58
	v-60.1c17.02-6.41,31.2-8.81,43.36-8.81c43.76,0,64.43,28.44,64.43,72.92c0,53.69-29.58,84.54-64.02,84.54
	c-17.02,0-32.02-7.61-42.55-17.23C597.23,517.26,597.23,489.21,597.23,467.58z M769.45,294.49c32.83,18.03,32.83,26.04,32.83,139.43
	c0,99.77-1.22,110.58-29.99,131.82c0,0,21.07-1.2,46.2-1.2c29.18,0,58.35,1.6,58.35,1.6c-33.23-18.83-38.09-29.65-38.09-98.57
	c0-61.7,0.41-135.82,2.03-197.52L769.45,294.49z M1073.78,461.97c0.41-4.4,0.81-9.21,0.81-14.42c0-38.47-23.91-80.54-79.02-80.54
	c-54.71,0-102.93,41.27-102.93,107.38c0,66.11,47.81,96.56,94.02,96.56c59.98,0,88.34-51.29,88.34-51.29
	c-18.24,12.02-43.77,18.43-64.84,18.43c-39.31,0-71.33-22.04-74.97-73.72L1073.78,461.97z M1030.02,449.15l-95.23,2.4
	c0.81-52.89,29.98-71.32,53.5-71.32c27.96,0,42.55,25.24,42.55,52.49C1030.83,436.33,1030.83,445.54,1030.02,449.15z"/>
</svg>
